<svg xmlns="http://www.w3.org/2000/svg" width="48" height="47.998" viewBox="0 0 48 47.998"><defs><style>.a{fill:#1989fa;}.b{fill:#fa5151;}.c{fill:#ffc300;}</style></defs><rect class="a" width="6.857" height="6.857"/><rect class="a" width="6.857" height="6.857" transform="translate(0 6.857)"/><rect class="a" width="6.857" height="6.857" transform="translate(0 13.715)"/><rect class="a" width="6.857" height="6.857" transform="translate(0 20.57)"/><rect class="a" width="6.857" height="6.857" transform="translate(6.857 20.57)"/><rect class="a" width="6.857" height="6.857" transform="translate(13.714 20.57)"/><rect class="b" width="6.857" height="6.857" transform="translate(27.43 20.57)"/><rect class="b" width="6.857" height="6.857" transform="translate(34.289 20.57)"/><rect class="b" width="6.857" height="6.857" transform="translate(41.143 20.57)"/><rect class="a" width="6.857" height="6.857" transform="translate(0 27.43)"/><rect class="a" width="6.857" height="6.857" transform="translate(0 34.289)"/><rect class="a" width="6.857" height="6.857" transform="translate(0 41.141)"/><rect class="a" width="6.857" height="6.857" transform="translate(6.857 41.141)"/><rect class="a" width="6.857" height="6.857" transform="translate(13.714 41.141)"/><rect class="a" width="6.857" height="6.857" transform="translate(20.571 41.141)"/><rect class="c" width="6.857" height="6.857" transform="translate(13.713 27.43)"/><rect class="c" width="6.857" height="6.857" transform="translate(27.431 27.426)"/><rect class="c" width="6.857" height="6.857" transform="translate(34.286 13.711)"/><rect class="c" width="6.857" height="6.857" transform="translate(6.857 13.711)"/><rect class="b" width="6.857" height="6.857" transform="translate(20.571 34.289)"/><rect class="b" width="6.857" height="6.857" transform="translate(20.571 27.43)"/><rect class="a" width="6.857" height="6.857" transform="translate(20.571 20.57)"/><rect class="b" width="6.857" height="6.857" transform="translate(27.429 41.141)"/><rect class="b" width="6.857" height="6.857" transform="translate(20.571 41.141)"/><rect class="b" width="6.857" height="6.857" transform="translate(34.287 41.141)"/><rect class="b" width="6.857" height="6.857" transform="translate(41.143 41.141)"/><rect class="a" width="6.857" height="6.857" transform="translate(6.857)"/><rect class="a" width="6.857" height="6.857" transform="translate(13.714)"/><rect class="b" width="6.857" height="6.857" transform="translate(20.571)"/><rect class="b" width="6.857" height="6.857" transform="translate(20.571 6.857)"/><rect class="b" width="6.857" height="6.857" transform="translate(20.571 13.715)"/><rect class="b" width="6.857" height="6.857" transform="translate(27.429)"/><rect class="b" width="6.857" height="6.857" transform="translate(34.286)"/><rect class="b" width="6.857" height="6.857" transform="translate(41.143)"/></svg>