<svg xmlns="http://www.w3.org/2000/svg" viewBox="0 0 116 115"><defs><style>.cls-1{fill:none;stroke:#1890ff;stroke-width:1.73px;}.cls-1,.cls-5{stroke-miterlimit:10;}.cls-2{fill:#096dd9;}.cls-3,.cls-5{fill:#fff;}.cls-4{fill:#1890ff;}.cls-5{stroke:#000;stroke-width:2px;}</style></defs><g id="图层_4" data-name="图层 4"><line class="cls-1" x1="115" x2="115" y2="115"/><path class="cls-2" d="M114.32,1.68V113.32H1.68V1.68H114.32M116,0H0V115H116V0Z"/></g><g id="图层_3" data-name="图层 3"><rect class="cls-3" x="33.4" y="39.05" width="37.89" height="37.89" transform="translate(-25.68 54) rotate(-45)"/><path class="cls-4" d="M52.34,32.69,77.65,58,52.34,83.31,27,58l25.3-25.31m0-3L24.06,58,52.34,86.28,80.63,58,52.34,29.72Z"/><path class="cls-3" d="M52.48,31.13,57,26.59l.55,0,.88,0H59L90.39,58l-5.52,5.52Z"/><path class="cls-2" d="M58.45,27.65h0L88.84,58l-4,4L54,31.13l3.45-3.46h.13l.84,0m0-2.19c-.59,0-.87,0-1.9.05l-5.62,5.62L84.87,65.07,91.94,58,59.41,25.47Z"/><path class="cls-3" d="M57.05,89.44,25.61,58l5.52-5.52L63.52,84.87,59,89.41l-.55,0-.88,0Z"/><path class="cls-2" d="M31.13,54,62,84.87l-3.45,3.46h-.13l-.84,0h0L27.16,58l4-4m0-3.1L24.06,58,56.59,90.53h1c.59,0,.87,0,1.9-.05l5.62-5.62L31.13,50.93Z"/><polygon class="cls-3" points="91.94 58 79.21 56.59 52.34 83.46 26.89 58 65.07 19.82 52.34 18.4 12.74 58 18.4 63.66 19.82 65.07 45.27 90.53 46.69 91.94 52.34 97.6 53.48 96.47 91.94 58"/><path class="cls-2" d="M52.34,94.77,48.1,90.53l-1.41-1.42L21.23,63.66l-1.41-1.42L15.57,58,53.08,20.5l7.63.84L25.47,56.59,24.06,58l1.41,1.41L50.93,84.87l1.41,1.41,1.42-1.41L80,58.68l7.63.85L52.34,94.77m-1.41,1.41,2.54.29L91.94,58,79.21,56.59,52.34,83.46,26.89,58,65.07,19.82,52.34,18.4,12.75,58l5.65,5.66,1.42,1.41L45.27,90.53l1.42,1.41"/><polygon class="cls-3" points="24.06 58 36.79 59.41 63.66 32.54 89.11 58 50.93 96.18 63.66 97.6 103.25 58 97.6 52.34 96.18 50.93 70.73 25.47 69.31 24.06 63.66 18.4 62.52 19.53 24.06 58"/><path class="cls-2" d="M63.66,21.23l4.24,4.24,1.41,1.42L94.77,52.34l1.41,1.42L100.43,58,62.92,95.5l-7.63-.84L90.53,59.41,91.94,58l-1.41-1.41L65.07,31.13l-1.41-1.41-1.42,1.41L36.05,57.32l-7.63-.85L63.66,21.23m1.41-1.41-2.54-.29L24.06,58l12.73,1.41L63.66,32.54,89.11,58,50.93,96.18,63.66,97.6,103.25,58,97.6,52.34l-1.42-1.41L70.73,25.47l-1.42-1.41"/><path class="cls-5" d="M50.93,96.18"/><path class="cls-5" d="M50.93,96.18"/><path class="cls-5" d="M65.07,19.82"/></g></svg>