<?xml version="1.0" encoding="utf-8"?>
<!-- Generator: Adobe Illustrator 26.0.0, SVG Export Plug-In . SVG Version: 6.00 Build 0)  -->
<svg version="1.1" xmlns="http://www.w3.org/2000/svg" xmlns:xlink="http://www.w3.org/1999/xlink" x="0px" y="0px"
	 viewBox="0 0 296 115" style="enable-background:new 0 0 296 115;" xml:space="preserve">
<style type="text/css">
	.st0{fill:#1890FF;}
	.st1{fill:none;stroke:#1890FF;stroke-width:1.726;stroke-miterlimit:10;}
	.st2{fill:#FFFFFF;}
	.st3{fill:#FFFFFF;stroke:#000000;stroke-width:2;stroke-miterlimit:10;}
</style>
<g id="图层_4">
	<g>
		<path class="st0" d="M294.3,1.7v111.6H1.7V1.7H294.3 M296,0H0v115h296V0L296,0z"/>
	</g>
	<line class="st1" x1="115" y1="0" x2="115" y2="115"/>
</g>
<g id="图层_2">
	<g>
		<path class="st0" d="M179.5,65.2l-5.5,6.2H155l-6.1-7V44.8l6-7.2H173l6,7.2v12.5h-21.5v-5.8h15.8v-4.5l-3-3.7h-12.6
			c-1,1.2-1.9,2.2-3,3.6v15.3c0.9,1,1.7,2.1,2.9,3.4h14l3.7-4.2L179.5,65.2z"/>
		<path class="st0" d="M185.1,71.6V22.1h5.8v49.5H185.1z"/>
		<path class="st0" d="M227.1,65.2l-5.5,6.2h-19.1l-6.1-7V44.8l6-7.2h18.1l6,7.2v12.5H205v-5.8h15.8v-4.5l-3-3.7h-12.6
			c-1,1.2-1.9,2.2-3,3.6v15.3c0.9,1,1.7,2.1,2.9,3.4h14l3.7-4.2L227.1,65.2z"/>
		<path class="st0" d="M237.7,37.8v13.5l9.2,13.7l9.3-13.7V37.8h5.8V53l-12.5,18.6h-5L231.9,53V37.8H237.7z"/>
	</g>
	<g>
		<path class="st0" d="M149.3,80.3H166v1h-2.6v12.5c0,1.1-0.6,1.7-1.7,1.7h-3.1l-0.2-0.9c1.4,0,2.4,0.1,3,0.1c0.7,0,1.1-0.4,1.1-1.1
			V81.3h-13.1V80.3z M158.6,84.3v6.4h-6.1v1.6h-1v-8H158.6z M152.6,89.8h5.1v-4.6h-5.1V89.8z"/>
		<path class="st0" d="M169.2,92.6c0.3-0.2,0.5-0.4,0.5-0.8V79.9h1.1v12.1c1.6-0.6,3.1-1.3,4.6-2.2l0.3,1c-1.9,1-3.9,1.9-6.1,2.6
			L169.2,92.6z M173.9,81.2c1.7,1.8,3,3.5,4,4.9l-0.8,0.6c-1-1.5-2.3-3.2-4-5L173.9,81.2z M174.6,95.4l-0.7-0.8
			c3.2-1.7,5.3-3.9,6.3-6.7c0.8-2.3,1.2-5.2,1.2-8.7h1.1c0,3.4-0.4,6.2-1.1,8.6c-0.1,0.4-0.2,0.6-0.3,0.8c1.5,1.9,2.9,3.8,4,5.8
			l-0.8,0.7c-1-1.8-2.2-3.7-3.6-5.6C179.4,91.9,177.4,93.9,174.6,95.4z"/>
		<path class="st0" d="M199.2,95.2c-0.6,0-1.7,0-3.3,0c-1.2,0-2.2-0.2-2.9-0.3c-0.7-0.2-1.4-0.7-2-1.3c-0.2-0.3-0.5-0.5-0.7-0.5
			c-0.5,0-1.3,0.8-2.4,2.5l-0.8-0.6c1.1-1.6,2-2.5,2.7-2.8v-5.8H187v-0.9h3.7v6.8c0.2,0.1,0.4,0.3,0.6,0.5c0.5,0.5,1,0.9,1.5,1.2
			c0.6,0.2,1.4,0.3,2.5,0.4c1.3,0,2.5,0,3.6,0h2.6l2-0.1l-0.2,1H199.2z M188,79.5c1.3,0.9,2.4,1.8,3.3,2.7l-0.7,0.7
			c-0.8-0.9-1.9-1.8-3.3-2.8L188,79.5z M192.6,81.9h4.7c-0.3-1-0.6-1.9-0.9-2.6l1.1-0.2c0.3,0.8,0.6,1.8,0.9,2.8h4.9v1h-1.8
			c-0.5,2-1.3,3.8-2.3,5.3c1.5,1.2,2.9,2.5,4.1,3.8l-0.8,0.7c-1.2-1.3-2.5-2.5-3.9-3.8c-1.5,1.8-3.5,3.1-5.8,3.9l-0.5-0.9
			c2.3-0.8,4.2-2,5.6-3.7c-1.3-1.1-2.8-2.3-4.5-3.4l0.7-0.6c1.6,1.1,3,2.2,4.4,3.3c0.9-1.3,1.6-2.9,2.1-4.7h-7.9V81.9z"/>
		<path class="st0" d="M209.4,95.6h-1v-9.9c-0.6,1.9-1.4,3.6-2.5,5.2l-0.5-0.8c1.4-1.8,2.3-3.9,2.9-6.3h-2.3v-1h2.5v-3.6h1v3.6h2v1
			h-2V85c0.8,0.9,1.6,1.8,2.5,2.9l-0.5,0.8c-0.8-1.1-1.4-2-1.9-2.6V95.6z M216.6,83.5h-4.3v-0.9h5.7c0.7-1.1,1.2-2.2,1.7-3.4l1,0.3
			c-0.5,1.1-1,2.2-1.7,3.1h3.1v0.9h-4.4v3h3.9v0.9h-3.9v3h4.9v0.9h-4.9v4.4h-1v-4.4h-4.8v-0.9h4.8v-3h-3.8v-0.9h3.8V83.5z
			 M214.3,79.2c0.6,0.8,1.1,1.8,1.7,2.8l-0.8,0.4c-0.5-1-1.1-1.9-1.7-2.8L214.3,79.2z"/>
		<path class="st0" d="M227,81.4c-0.5,0.9-1.1,1.7-1.7,2.3l-0.9-0.5c1.2-1.2,2-2.5,2.6-4.1l1,0.2c-0.2,0.5-0.4,0.9-0.5,1.2h5.2v0.9
			h-3.1c0.5,0.7,1,1.4,1.2,2l-0.9,0.3c-0.4-0.7-0.8-1.5-1.4-2.3H227z M225.8,86h1v9.6h-1V86z M227.4,83.4c1,0.8,1.8,1.5,2.3,2.1
			l-0.8,0.5c-0.6-0.7-1.3-1.4-2.3-2.2L227.4,83.4z M229.6,86.9h6.5v6.6h-6.5V86.9z M230.5,89.8h4.6v-2h-4.6V89.8z M235.2,92.7v-2.1
			h-4.6v2.1H235.2z M236.5,95.5l-0.2-0.9l1.9,0c0.5,0,0.8-0.3,0.8-0.8V85h-7.5v-0.9h8.5v10c0,0.9-0.5,1.4-1.6,1.4H236.5z M235,81.4
			c-0.4,0.7-0.8,1.4-1.3,1.9l-0.8-0.5c0.9-1.1,1.6-2.3,2.1-3.7l1,0.2c-0.2,0.6-0.4,1-0.5,1.2h5.7v0.9h-3.4c0.5,0.7,0.9,1.3,1.2,1.8
			l-0.9,0.3c-0.4-0.7-0.8-1.4-1.4-2.1H235z"/>
		<path class="st0" d="M244,83.7c1.3,0.9,2.4,1.8,3.2,2.7l-0.7,0.7c-0.8-0.8-1.8-1.7-3.2-2.7L244,83.7z M244.5,79.4
			c1.3,0.8,2.3,1.6,3.2,2.4l-0.7,0.7c-0.8-0.8-1.8-1.6-3.2-2.5L244.5,79.4z M247.4,88.8c-0.8,2.4-1.7,4.6-2.6,6.5l-1-0.4
			c1.1-2.1,2-4.3,2.7-6.5L247.4,88.8z M248.5,81.4h5.3v-2.3h1v2.3h5.2v1h-5.2v3.1h4.5v0.9h-10v-0.9h4.5v-3.1h-5.3V81.4z M258.7,88.5
			v7.1h-1v-0.8h-6.8v0.8h-1v-7.1H258.7z M250.9,93.8h6.8v-4.4h-6.8V93.8z"/>
	</g>
</g>
<g id="图层_3">
	<g>
		
			<rect x="33.4" y="39.1" transform="matrix(0.7071 -0.7071 0.7071 0.7071 -25.6812 54.0001)" class="st2" width="37.9" height="37.9"/>
		<path class="st0" d="M52.3,32.7L77.7,58L52.3,83.3L27,58L52.3,32.7 M52.3,29.7L24.1,58l28.3,28.3L80.6,58L52.3,29.7L52.3,29.7z"/>
	</g>
	<g>
		<path class="st2" d="M52.5,31.1l4.5-4.5c0.2,0,0.4,0,0.6,0c0.3,0,0.6,0,0.9,0c0.1,0,0.3,0,0.5,0L90.4,58l-5.5,5.5L52.5,31.1z"/>
		<path class="st0" d="M58.4,27.6C58.5,27.6,58.5,27.6,58.4,27.6L88.8,58l-4,4L54,31.1l3.5-3.5c0,0,0.1,0,0.1,0
			C57.9,27.7,58.1,27.6,58.4,27.6 M58.4,25.5c-0.6,0-0.9,0-1.9,0.1l-5.6,5.6l33.9,33.9l7.1-7.1L59.4,25.5
			C59,25.5,58.7,25.5,58.4,25.5L58.4,25.5z"/>
	</g>
	<g>
		<path class="st2" d="M57,89.4L25.6,58l5.5-5.5l32.4,32.4L59,89.4c-0.2,0-0.4,0-0.6,0c-0.3,0-0.6,0-0.9,0
			C57.4,89.4,57.2,89.4,57,89.4z"/>
		<path class="st0" d="M31.1,54L62,84.9l-3.5,3.5c0,0-0.1,0-0.1,0c-0.3,0-0.5,0-0.8,0c0,0,0,0,0,0L27.2,58L31.1,54 M31.1,50.9
			L24.1,58l32.5,32.5c0.4,0,0.7,0,1,0c0.6,0,0.9,0,1.9-0.1l5.6-5.6L31.1,50.9L31.1,50.9z"/>
	</g>
	<g>
		<polygon class="st2" points="91.9,58 79.2,56.6 52.3,83.5 26.9,58 65.1,19.8 52.3,18.4 12.7,58 18.4,63.7 19.8,65.1 45.3,90.5 
			46.7,91.9 52.3,97.6 53.5,96.5 		"/>
		<path class="st0" d="M52.3,94.8l-4.2-4.2l-1.4-1.4L21.2,63.7l-1.4-1.4L15.6,58l37.5-37.5l7.6,0.8L25.5,56.6L24.1,58l1.4,1.4
			l25.5,25.5l1.4,1.4l1.4-1.4l26.2-26.2l7.6,0.8L52.3,94.8 M50.9,96.2l2.5,0.3L91.9,58l-12.7-1.4L52.3,83.5L26.9,58l38.2-38.2
			l-12.7-1.4L12.7,58l5.7,5.7l1.4,1.4l25.5,25.5l1.4,1.4"/>
	</g>
	<g>
		<polygon class="st2" points="24.1,58 36.8,59.4 63.7,32.5 89.1,58 50.9,96.2 63.7,97.6 103.3,58 97.6,52.3 96.2,50.9 70.7,25.5 
			69.3,24.1 63.7,18.4 62.5,19.5 		"/>
		<path class="st0" d="M63.7,21.2l4.2,4.2l1.4,1.4l25.5,25.5l1.4,1.4l4.2,4.2L62.9,95.5l-7.6-0.8l35.2-35.2l1.4-1.4l-1.4-1.4
			L65.1,31.1l-1.4-1.4l-1.4,1.4L36.1,57.3l-7.6-0.8L63.7,21.2 M65.1,19.8l-2.5-0.3L24.1,58l12.7,1.4l26.9-26.9L89.1,58L50.9,96.2
			l12.7,1.4L103.3,58l-5.7-5.7l-1.4-1.4L70.7,25.5l-1.4-1.4"/>
	</g>
	<path class="st3" d="M50.9,96.2"/>
	<path class="st3" d="M50.9,96.2"/>
	<path class="st3" d="M65.1,19.8"/>
</g>
</svg>
