<svg xmlns="http://www.w3.org/2000/svg" xmlns:xlink="http://www.w3.org/1999/xlink" width="134" height="48" viewBox="0 0 134 48"><defs><style>.a{fill:url(#a);}.b{fill:#1989fa;}.c{fill:#fa5151;}.d{fill:#ffc300;}.e{fill:url(#b);}</style><linearGradient id="a" y1="0.5" x2="1" y2="0.5" gradientUnits="objectBoundingBox"><stop offset="0" stop-color="#1989fa"/><stop offset="0.151" stop-color="#1989fa"/><stop offset="0.502" stop-color="#ffc300"/><stop offset="0.862" stop-color="#fa5151"/><stop offset="1" stop-color="#fa5151"/></linearGradient><linearGradient id="b" y1="0.5" x2="1" y2="0.5" gradientUnits="objectBoundingBox"><stop offset="0" stop-color="#1989fa"/><stop offset="0.192" stop-color="#1989fa"/><stop offset="0.322" stop-color="#fa5151"/><stop offset="0.464" stop-color="#1989fa"/><stop offset="0.557" stop-color="#1989fa"/><stop offset="0.628" stop-color="#1989fa"/><stop offset="0.79" stop-color="#ffc300"/><stop offset="1" stop-color="#ffc300"/></linearGradient></defs><path class="a" d="M0,48V0H134V48Zm132-2V2H2V46H48V2h2V46Z"/><g transform="translate(6.328 6.498)"><rect class="b" width="5.001" height="5.001"/><rect class="b" width="5.001" height="5.001" transform="translate(0 5.001)"/><rect class="b" width="5.001" height="5.001" transform="translate(0 10.002)"/><rect class="b" width="5.001" height="5.001" transform="translate(0 15.001)"/><rect class="b" width="5.001" height="5.001" transform="translate(5.001 15.001)"/><rect class="b" width="5.001" height="5.001" transform="translate(10.001 15.001)"/><rect class="c" width="5.001" height="5.001" transform="translate(20.004 15.001)"/><rect class="c" width="5.001" height="5.001" transform="translate(25.006 15.001)"/><rect class="c" width="5.001" height="5.001" transform="translate(30.004 15.001)"/><rect class="b" width="5.001" height="5.001" transform="translate(0 20.004)"/><rect class="b" width="5.001" height="5.001" transform="translate(0 25.006)"/><rect class="b" width="5.001" height="5.001" transform="translate(0 30.003)"/><rect class="b" width="5.001" height="5.001" transform="translate(5.001 30.003)"/><rect class="b" width="5.001" height="5.001" transform="translate(10.001 30.003)"/><rect class="b" width="5.001" height="5.001" transform="translate(15.002 30.003)"/><rect class="d" width="5.001" height="5.001" transform="translate(10 20.004)"/><rect class="d" width="5.001" height="5.001" transform="translate(20.005 20.001)"/><rect class="d" width="5.001" height="5.001" transform="translate(25.003 9.999)"/><rect class="d" width="5.001" height="5.001" transform="translate(5.001 9.999)"/><rect class="c" width="5.001" height="5.001" transform="translate(15.002 25.006)"/><rect class="c" width="5.001" height="5.001" transform="translate(15.002 20.004)"/><rect class="b" width="5.001" height="5.001" transform="translate(15.002 15.001)"/><rect class="c" width="5.001" height="5.001" transform="translate(20.003 30.003)"/><rect class="c" width="5.001" height="5.001" transform="translate(15.002 30.003)"/><rect class="c" width="5.001" height="5.001" transform="translate(25.005 30.003)"/><rect class="c" width="5.001" height="5.001" transform="translate(30.004 30.003)"/><rect class="b" width="5.001" height="5.001" transform="translate(5.001)"/><rect class="b" width="5.001" height="5.001" transform="translate(10.001)"/><rect class="c" width="5.001" height="5.001" transform="translate(15.002)"/><rect class="c" width="5.001" height="5.001" transform="translate(15.002 5.001)"/><rect class="c" width="5.001" height="5.001" transform="translate(15.002 10.002)"/><rect class="c" width="5.001" height="5.001" transform="translate(20.003)"/><rect class="c" width="5.001" height="5.001" transform="translate(25.004)"/><rect class="c" width="5.001" height="5.001" transform="translate(30.004)"/></g><path class="e" d="M12.3-17.574H5.249c-.754.754-1.363,1.334-2.175,2.175v4.263H12.3v2.32H3.074v4.408L5.191-2.32H12.3V0H4.234L.754-3.393V-16.356l3.48-3.538H12.3ZM18.531,0V-19.923h2.32V0ZM39.469-2.552l-2.2,2.494H29.58L27.115-2.871v-7.888l2.436-2.9H36.83l2.436,2.9v5.046H30.595v-2.32h6.351V-9.86l-1.218-1.479H30.653c-.406.493-.754.87-1.218,1.45v6.148c.348.406.7.841,1.16,1.363h5.626L37.729-4.06Zm8.352-17.342V-9.6L52.229-2.32h.058L56.695-9.6v-10.3h2.32V-8.816L53.418,0H51.1L45.5-8.816V-19.894Z" transform="translate(61 28)"/><path class="a" d="M.55-7.57H9.47v.7H8.15v6.8q0,1-.96,1H5.52L5.36.23q1.1.04,1.58.04t.49-.52V-6.87H.55ZM5.6-5.34v3.67H2.41v.88h-.7V-5.34ZM2.41-2.33h2.5V-4.69H2.41ZM13.77-7.08a21.935,21.935,0,0,1,2.09,2.75l-.61.42a22.719,22.719,0,0,0-2.08-2.8Zm3.46,4.89A8.13,8.13,0,0,1,14.09.92L13.61.33a7.09,7.09,0,0,0,3.31-3.67,16.278,16.278,0,0,0,.63-4.74h.74a16.412,16.412,0,0,1-.61,4.79q-.04.14-.14.4A23.005,23.005,0,0,1,19.6.25L19.05.8A20.552,20.552,0,0,0,17.23-2.19ZM11.05-.76a.664.664,0,0,0,.27-.55V-7.82h.74v6.68a15.562,15.562,0,0,0,2.32-1.15l.2.7A21.314,21.314,0,0,1,11.29-.08ZM23.57-6.7h2.45a14.137,14.137,0,0,0-.45-1.36l.73-.12q.24.66.45,1.48h2.54v.69H28.4a9.493,9.493,0,0,1-1.22,2.86,27.682,27.682,0,0,1,2.11,2.01l-.56.56a21.866,21.866,0,0,0-1.97-2A6.719,6.719,0,0,1,23.77-.53l-.41-.65a6.122,6.122,0,0,0,2.87-1.87q-1.05-.9-2.28-1.83l.49-.47q1.22.9,2.21,1.74a8.061,8.061,0,0,0,1.04-2.4H23.57ZM21.26-8.01a12.712,12.712,0,0,1,1.72,1.53l-.52.51a11.056,11.056,0,0,0-1.69-1.57ZM27.09.82q-.5,0-1.76-.02A6.066,6.066,0,0,1,23.78.62a2.34,2.34,0,0,1-1.05-.73.511.511,0,0,0-.38-.25q-.35,0-1.18,1.38L20.63.53A3.974,3.974,0,0,1,22.04-1V-4.04H20.61V-4.7h2.1V-.96a1.5,1.5,0,0,1,.24.23,2.345,2.345,0,0,0,.77.63,3.56,3.56,0,0,0,1.33.24q1.04.02,1.94.02.46,0,1.44-.02Q29.25.12,29.55.1l-.17.72Zm9.2-6.5H34.03v-.68h1.48a12.926,12.926,0,0,0-.87-1.5l.6-.28q.45.69.87,1.5l-.57.28h1.57a14.112,14.112,0,0,0,.82-1.83l.69.24a9.57,9.57,0,0,1-.8,1.59h1.47v.68H37.01v1.47h1.98v.68H37.01v1.51h2.54v.69H37.01v2.4h-.72v-2.4H33.8v-.69h2.49V-3.53H34.34v-.68h1.95ZM32.62,1.01h-.69V-4.14a10.611,10.611,0,0,1-1.19,2.53l-.39-.61a9.353,9.353,0,0,0,1.52-3.3H30.68v-.69h1.25V-8.16h.69v1.95h1v.69h-1v.63q.54.58,1.28,1.52l-.39.58q-.54-.85-.89-1.3Zm8.59-5.35h.71V1.01h-.71ZM46.98.97,46.81.32l.94.02q.38,0,.38-.44V-4.76H44.25v-.66h4.59V.1q0,.87-.94.87ZM43.21-3.87h3.61V-.1H43.21ZM46.15-.71v-1H43.9v1ZM43.9-2.29h2.25v-.98H43.9ZM42.22-5.83a10.962,10.962,0,0,1,1.22,1.21l-.53.37A10.965,10.965,0,0,0,41.69-5.5Zm-.23-.99a8.461,8.461,0,0,1-.86,1.22l-.61-.39A6.438,6.438,0,0,0,41.84-8.2l.7.15-.24.6h2.64v.63h-1.5a5.651,5.651,0,0,1,.59.99l-.64.24a8.588,8.588,0,0,0-.71-1.23Zm4.25,0a6.927,6.927,0,0,1-.67,1.05l-.61-.39a6.045,6.045,0,0,0,1.08-2.03l.69.15q-.1.32-.21.59h2.92v.63H47.78a8.927,8.927,0,0,1,.57.91l-.64.24a7.455,7.455,0,0,0-.7-1.15Zm7.07-.13h2.72V-8.19h.73v1.24h2.71v.69H56.76v1.52h2.35v.69h-5.4v-.69h2.32V-6.26H53.31Zm5.53,3.91V1.02h-.69V.59H54.71v.43h-.69V-3.04ZM54.71-.09h3.44V-2.36H54.71ZM51.29-8.04A12.32,12.32,0,0,1,52.95-6.7l-.51.51a10.277,10.277,0,0,0-1.67-1.35Zm-.24,2.4a11.783,11.783,0,0,1,1.69,1.47l-.52.52a9.706,9.706,0,0,0-1.68-1.5Zm1.8,2.91A36.578,36.578,0,0,1,51.47.88L50.75.57A29.635,29.635,0,0,0,52.2-2.99Z" transform="translate(61 40)"/></svg>