<svg xmlns="http://www.w3.org/2000/svg" viewBox="0 0 182 115"><defs><style>.cls-1{fill:#1890ff;}.cls-2{fill:none;stroke:#1890ff;stroke-miterlimit:10;stroke-width:1.73px;}</style></defs><g id="图层_4" data-name="图层 4"><path class="cls-1" d="M180.68,1.32V113.68H1.32V1.32H180.68M182,0H0V115H182V0Z"/><line class="cls-2" x1="1" x2="1" y2="115"/></g><g id="图层_2" data-name="图层 2"><path class="cls-1" d="M65.53,65.22l-5.47,6.19H41l-6.12-7V44.84l6-7.2H59L65,44.84V57.37H43.5V51.61H59.27V47.07l-3-3.67H43.64c-1,1.22-1.87,2.16-3,3.6V62.26c.86,1,1.73,2.09,2.88,3.39h14l3.74-4.18Z"/><path class="cls-1" d="M71.07,71.55V22.08h5.77V71.55Z"/><path class="cls-1" d="M113.05,65.22l-5.47,6.19H88.5l-6.12-7V44.84l6.05-7.2H106.5l6,7.2V57.37H91V51.61h15.77V47.07l-3-3.67H91.16c-1,1.22-1.87,2.16-3,3.6V62.26c.86,1,1.73,2.09,2.88,3.39h14l3.74-4.18Z"/><path class="cls-1" d="M123.71,37.78V51.32L132.92,65l9.29-13.68V37.78H148V53L135.44,71.55h-5L118,53V37.78Z"/><path class="cls-1" d="M35.3,80.31H52v1H49.42V93.75a1.51,1.51,0,0,1-1.73,1.68h-3.1l-.23-.94c1.38.05,2.37.07,3,.07a.93.93,0,0,0,1.06-1.06V81.26H35.3Zm9.31,4V90.7h-6v1.63h-1v-8Zm-6,5.47h5.07V85.2H38.56Z"/><path class="cls-1" d="M55.21,92.58a.86.86,0,0,0,.45-.79V79.93h1.05V92.06a29.37,29.37,0,0,0,4.57-2.18l.3,1a37.43,37.43,0,0,1-6,2.64Zm4.7-11.43a41,41,0,0,1,4,4.94l-.84.57a34.68,34.68,0,0,0-4-5Zm.66,14.3-.7-.81A13.11,13.11,0,0,0,66.19,88a27.07,27.07,0,0,0,1.18-8.66h1.06a28.35,28.35,0,0,1-1.13,8.57c-.13.36-.23.62-.3.79a40.43,40.43,0,0,1,4,5.83l-.77.74a38.44,38.44,0,0,0-3.65-5.62A14.45,14.45,0,0,1,60.57,95.45Z"/><path class="cls-1" d="M85.16,95.23l-3.31,0a13,13,0,0,1-2.9-.35,4.18,4.18,0,0,1-2-1.33,1,1,0,0,0-.71-.47c-.53,0-1.33.84-2.41,2.52l-.77-.65c1.05-1.58,2-2.5,2.72-2.75V86.41H73v-.94h3.74v6.75a1.58,1.58,0,0,1,.59.49,4.16,4.16,0,0,0,1.52,1.19,8.67,8.67,0,0,0,2.54.38l3.61,0h2.63l2-.07-.25,1ZM74.05,79.52a20.56,20.56,0,0,1,3.25,2.73l-.72.69a20,20,0,0,0-3.25-2.78Zm4.53,2.37h4.71a17.41,17.41,0,0,0-.92-2.59l1.06-.18c.31.83.61,1.75.9,2.77h4.9v1h-1.8a16.45,16.45,0,0,1-2.33,5.31A48.88,48.88,0,0,1,89.22,92l-.77.74a44.47,44.47,0,0,0-3.93-3.78,12.8,12.8,0,0,1-5.81,3.91L78.16,92a12,12,0,0,0,5.6-3.66c-1.32-1.12-2.82-2.26-4.47-3.44l.7-.65c1.56,1.11,3,2.21,4.36,3.32a14.06,14.06,0,0,0,2.08-4.68H78.58Z"/><path class="cls-1" d="M95.38,95.57h-1V85.65a19.5,19.5,0,0,1-2.5,5.19L91.36,90a17.23,17.23,0,0,0,2.91-6.26H91.92v-1h2.47v-3.6h1v3.6h2v1h-2V85a33.86,33.86,0,0,1,2.46,2.9l-.54.78Q96.13,87,95.38,86.09Zm7.18-12.11H98.22v-.92H104a18.7,18.7,0,0,0,1.68-3.42l1,.32a17.28,17.28,0,0,1-1.67,3.1H108v.92h-4.42v3h3.87v.92h-3.87v3h4.92v.94h-4.92v4.44h-1V91.29H97.77v-.94h4.79v-3H98.8v-.92h3.76Zm-2.27-4.23A27.42,27.42,0,0,1,102,82l-.85.39a19.34,19.34,0,0,0-1.69-2.79Z"/><path class="cls-1" d="M113,81.41a12,12,0,0,1-1.67,2.28l-.86-.54A11,11,0,0,0,113,79.08l1,.2c-.2.51-.38.92-.53,1.24h5.21v.89h-3.08a13.61,13.61,0,0,1,1.24,2l-.92.32a19.12,19.12,0,0,0-1.39-2.28ZM111.79,86h1v9.59h-1Zm1.62-2.56a19,19,0,0,1,2.33,2.14l-.77.52a17.2,17.2,0,0,0-2.31-2.21Zm2.16,3.49h6.54v6.63h-6.54Zm1,2.86h4.62v-2h-4.62Zm4.62,2.92V90.62h-4.62v2.09Zm1.36,2.83-.25-.9,1.86,0c.52,0,.77-.26.77-.79V85h-7.51v-.9h8.51v10c0,.94-.53,1.41-1.58,1.41ZM121,81.41a11.13,11.13,0,0,1-1.31,1.94l-.85-.52a11,11,0,0,0,2.09-3.73l1,.2c-.2.55-.36,1-.47,1.22h5.69v.89h-3.38A14,14,0,0,1,125,83.22l-.92.33a13.23,13.23,0,0,0-1.39-2.14Z"/><path class="cls-1" d="M130,83.75a22.2,22.2,0,0,1,3.21,2.7l-.71.68a21.46,21.46,0,0,0-3.24-2.7Zm.43-4.31a24.09,24.09,0,0,1,3.19,2.45l-.71.7a19.65,19.65,0,0,0-3.2-2.48Zm2.95,9.4a64.41,64.41,0,0,1-2.63,6.54l-1-.42a53.13,53.13,0,0,0,2.71-6.46Zm1.05-7.4h5.27V79.1h1v2.34H146v1h-5.25v3.06h4.55v.91h-10v-.91h4.5V82.4h-5.27Zm10.21,7v7.11h-1v-.85h-6.76v.85h-1V88.48Zm-7.76,5.35h6.76V89.42h-6.76Z"/></g></svg>